<svg width="158" height="49" viewBox="0 0 158 49" fill="none" xmlns="http://www.w3.org/2000/svg">
<path d="M16.0946 0.211704C10.9212 0.211704 8.1619 0.557007 6.95432 0.557007C4.94229 0.557007 3.16033 0.499218 1.37761 0.499218C0.400728 0.499218 0.228271 0.557098 0.228271 0.959366C0.228271 1.64869 0.45793 1.70705 3.04557 1.70705C4.65445 1.70705 5.57531 2.22448 5.57531 6.76588V33.2107C5.57531 34.0729 5.45958 34.188 2.87294 34.188C1.60802 34.188 1.26277 34.3023 1.26277 34.8779C1.26277 35.4526 1.66527 35.51 2.24086 35.51C4.07997 35.51 5.34487 35.2803 7.75912 35.2803C10.2885 35.2803 12.7033 35.8545 15.118 35.8545C23.1092 35.8545 28.456 32.8085 28.456 26.3696C28.456 21.3682 25.0631 19.4131 22.3613 18.0326C21.2115 17.4579 20.119 17.1706 20.119 17.056C20.119 16.884 21.3839 16.2512 22.4769 15.5036C24.3169 14.2392 26.7888 12.2261 26.7888 8.14474C26.7888 4.0629 23.5691 0.211563 16.0943 0.211563L16.0946 0.211704ZM114.597 0.277454C114.297 0.277454 112.397 1.12754 108.496 1.37761C107.647 1.42754 107.246 1.37706 107.246 1.97716C107.246 2.52778 107.747 2.62803 108.647 2.62803C110.896 2.62803 111.197 2.62779 111.197 5.77754V33.3292C111.197 34.2293 110.346 34.1794 108.296 34.1794C107.096 34.1794 107.046 34.4803 107.046 34.8303C107.046 35.2302 107.146 35.3302 108.296 35.3302C108.996 35.3302 111.647 35.2305 113.346 35.2305C114.248 35.2305 115.347 35.3302 116.097 35.3302C117.897 35.3302 118.247 35.33 118.247 34.8303C118.247 34.4294 118.347 34.1296 115.847 34.1296C114.947 34.1296 114.597 33.5796 114.597 29.4298C114.597 27.979 114.847 24.0294 114.847 4.9776C114.847 3.47782 115.097 1.67679 115.097 1.07669C115.097 0.526531 114.846 0.277031 114.597 0.277031L114.597 0.277454ZM73.0832 0.327286C72.6329 0.327286 69.6823 1.4268 66.0826 1.4268C65.5325 1.4268 65.4325 1.627 65.4325 2.12677C65.4325 2.47767 65.6325 2.62812 67.682 2.62812C69.0319 2.62812 69.4323 3.07822 69.4323 6.62794C69.4323 17.1791 69.2821 31.9798 69.2821 33.4297C69.2821 34.1796 68.8322 34.1795 67.1323 34.1795C65.9321 34.1795 65.6824 34.4295 65.6824 34.8304C65.6824 35.2802 65.9824 35.3302 67.1323 35.3302C67.8322 35.3302 69.6826 35.2305 71.3835 35.2305C72.9836 35.2305 75.2828 35.3302 76.0327 35.3302C77.1325 35.3302 77.3829 35.3301 77.3829 34.8304C77.3829 34.4295 77.183 34.1795 76.0327 34.1795C72.9328 34.1795 73.0333 34.1798 73.0333 31.8303V28.6801C73.0333 28.2298 73.7332 27.8793 74.533 27.3791C75.3828 26.8289 76.0824 26.3295 76.2826 26.3295C76.5827 26.3295 78.6839 29.4803 80.7838 31.8802C82.8837 34.2801 83.334 35.5303 84.2346 35.5303C84.9345 35.5303 86.4344 35.4805 87.0345 35.4805C87.4843 35.4805 88.1341 35.5303 88.7342 35.5303C89.8341 35.5303 90.1841 35.4303 90.1841 35.0803C90.1841 34.6804 89.7845 34.4294 88.5847 34.4294C86.8848 34.4294 85.2846 31.9797 83.5837 29.9297C80.0839 25.7291 79.1844 24.7794 79.1844 24.3291C79.1844 23.9792 82.2843 21.7796 84.785 19.3288C86.3347 17.8291 88.0343 15.6794 88.0343 15.2286C88.0343 15.0784 87.8346 15.0285 87.4347 15.0285C86.8351 15.0285 83.9339 15.1781 83.2839 15.1781C82.6838 15.1781 81.7343 15.0285 81.2345 15.0285C80.5845 15.0285 80.3344 15.1283 80.3344 15.5291C80.3344 15.9794 80.5843 16.0789 81.3342 16.0789C83.5339 16.0789 83.6841 16.1791 83.6841 16.9789C83.6841 18.0289 83.2339 18.8791 81.2843 20.7289C79.6842 22.2296 74.4828 26.8294 73.2327 26.8294C73.0829 26.8294 73.0333 26.6792 73.0333 26.479C73.0333 18.3287 73.3324 12.7286 73.3324 5.12805C73.3324 3.52796 73.4328 1.4267 73.4328 0.777134C73.4328 0.477089 73.3328 0.327087 73.0832 0.327087L73.0832 0.327286ZM14.3692 1.59148C19.6009 1.59148 22.0156 7.11076 22.0156 9.98548C22.0156 14.5269 20.1185 15.6193 18.4513 16.8842C18.4513 16.8842 16.0363 16.5389 12.53 16.5389C11.1495 16.5389 10.4026 16.6534 10.4026 15.7334V3.25904C10.4026 2.10925 10.5754 1.59181 14.3691 1.59181L14.3692 1.59148ZM39.5806 14.5282C35.0304 14.5282 30.2796 18.7288 30.2796 25.7792C30.2796 34.1297 36.3804 36.1306 40.4803 36.1306C44.5307 36.1306 48.7811 32.9794 48.7811 32.7297C48.7811 32.6294 48.631 32.3295 48.3809 32.3295C48.0813 32.3295 46.2812 33.53 42.9811 33.53C39.1804 33.53 33.8294 31.6797 33.8294 24.7791C33.8294 23.6293 33.98 23.3792 34.7807 23.3293C40.4803 22.9793 45.4807 21.8799 46.7808 21.5789C48.1317 21.2789 48.8316 21.0791 48.8316 20.8789C48.8316 20.479 48.0309 19.2787 47.1803 18.2791C45.3805 16.1788 42.1807 14.5286 39.5802 14.5286L39.5806 14.5282ZM97.8858 14.5282C93.3361 14.5282 88.5849 18.7288 88.5849 25.7792C88.5849 34.1297 94.6852 36.1306 98.7855 36.1306C102.835 36.1306 107.086 32.9794 107.086 32.7297C107.086 32.6294 106.936 32.3295 106.686 32.3295C106.386 32.3295 104.586 33.53 101.286 33.53C97.4854 33.53 92.1353 31.6797 92.1353 24.7791C92.1353 23.6293 92.2854 23.3792 93.0852 23.3293C98.7856 22.9793 103.785 21.8799 105.086 21.5789C106.436 21.2789 107.136 21.0791 107.136 20.8789C107.136 20.479 106.337 19.2787 105.486 18.2791C103.686 16.1788 100.486 14.5286 97.8855 14.5286L97.8858 14.5282ZM126.727 14.5282C122.177 14.5282 117.426 18.7288 117.426 25.7792C117.426 34.1297 123.527 36.1306 127.627 36.1306C131.677 36.1306 135.928 32.9794 135.928 32.7297C135.928 32.6294 135.777 32.3295 135.528 32.3295C135.228 32.3295 133.428 33.53 130.127 33.53C126.327 33.53 120.977 31.6797 120.977 24.7791C120.977 23.6293 121.127 23.3792 121.927 23.3293C127.627 22.9793 132.628 21.8799 133.928 21.5789C135.278 21.2789 135.978 21.0791 135.978 20.8789C135.978 20.479 135.178 19.2787 134.328 18.2791C132.528 16.1788 129.328 14.5286 126.728 14.5286L126.727 14.5282ZM56.9815 14.8778C56.1807 14.8778 55.2305 15.1277 54.4307 15.1277C53.4307 15.1277 52.4805 15.0273 50.7805 15.0273C49.9298 15.0273 49.9801 15.1781 49.9801 15.7786C49.9801 16.3288 49.9799 16.2785 50.8809 16.2785C53.6807 16.2785 53.5804 16.3785 53.5804 19.7784V33.4798C53.5804 34.1798 53.4307 34.2296 51.3808 34.2296C50.1801 34.2296 50.1303 34.3293 50.1303 34.83C50.1303 35.3302 50.23 35.3298 51.3808 35.3298C52.0807 35.3298 53.7811 35.0799 55.481 35.0799C57.0816 35.0799 60.4315 35.3298 61.1314 35.3298C62.4315 35.3298 62.4816 35.3801 62.4816 34.83C62.4816 34.3792 62.4315 34.2296 61.1314 34.2296C57.4315 34.2296 57.2819 34.2292 57.2819 31.7793V21.4779C57.2819 19.378 58.3812 18.178 61.2809 18.178C63.7816 18.178 64.3821 20.2281 65.0821 20.2281C65.3821 20.2281 66.1816 18.0281 66.1816 17.5279C66.1816 16.2283 63.8818 15.1274 62.9807 15.1274C60.6307 15.1274 58.2817 17.728 57.5318 17.728C57.3316 17.728 57.2818 17.3782 57.2818 16.9283C57.2818 16.7781 57.3815 15.678 57.3815 15.4279C57.3815 15.0271 57.1815 14.8774 56.9813 14.8774L56.9815 14.8778ZM156.824 14.9277C156.125 14.9277 154.774 15.1277 154.025 15.1277C152.674 15.1277 151.774 15.028 150.424 15.028C149.524 15.028 149.374 15.0277 149.374 15.6782C149.374 16.1784 149.574 16.1788 151.124 16.1788C152.824 16.1788 152.823 16.4785 152.823 17.9783C152.823 18.6782 151.024 23.8793 149.824 27.479C149.024 29.8299 148.724 30.5296 148.374 30.5296C148.174 30.5296 147.574 29.6796 147.173 28.6297C144.173 20.9283 142.873 19.178 142.873 17.7281C142.873 16.5783 143.173 16.2783 144.373 16.2783C145.423 16.2783 145.623 16.2283 145.623 15.7784C145.623 15.2273 145.423 15.0279 144.373 15.0279C142.773 15.0279 141.022 15.1774 139.623 15.1774C138.423 15.1774 138.073 15.0777 136.673 15.0777C135.773 15.0777 135.623 15.3281 135.623 15.7784C135.623 16.2283 135.673 16.2783 136.673 16.2783C137.573 16.2783 137.923 16.5287 139.173 19.5282C141.924 26.0289 145.923 35.2796 145.923 35.8297C145.923 37.3295 141.624 43.2296 139.823 45.4793C138.123 47.63 135.773 47.9301 135.773 48.2301C135.773 48.4802 136.273 48.73 137.123 48.73C138.223 48.73 138.573 48.3302 140.073 48.1304C141.173 47.9802 141.773 47.93 142.323 46.8302C143.923 43.5297 146.174 39.4791 149.324 31.8288C153.274 22.2291 155.475 16.2282 156.575 16.2282C157.175 16.2282 157.874 15.978 157.874 15.5282C157.874 14.9776 157.624 14.9272 156.824 14.9272V14.9277ZM39.0803 15.5785C41.3808 15.5785 44.3306 19.2781 44.3306 20.5282C44.3306 20.8283 44.2812 20.9282 43.731 21.0281C39.9806 21.6282 37.2804 22.2793 34.6803 22.2793C34.0797 22.2793 34.08 22.2289 34.08 21.9787C34.08 21.2779 35.2805 15.5784 39.0803 15.5784L39.0803 15.5785ZM97.3847 15.5785C99.6857 15.5785 102.636 19.2781 102.636 20.5282C102.636 20.8283 102.586 20.9282 102.035 21.0281C98.285 21.6282 95.585 22.2793 92.9854 22.2793C92.3853 22.2793 92.3851 22.2289 92.3851 21.9787C92.3851 21.2779 93.5848 15.5784 97.3847 15.5784L97.3847 15.5785ZM126.226 15.5785C128.526 15.5785 131.477 19.2781 131.477 20.5282C131.477 20.8283 131.427 20.9282 130.877 21.0281C127.126 21.6282 124.427 22.2793 121.826 22.2793C121.226 22.2793 121.226 22.2289 121.226 21.9787C121.226 21.2779 122.425 15.5784 126.226 15.5784L126.226 15.5785ZM12.4765 17.6301C18.7423 17.6301 22.9962 21.6545 22.9962 26.8288C22.9962 31.8302 19.7773 34.8205 15.4083 34.8205C13.5683 34.8205 11.7294 34.4178 11.0964 33.7276C10.5796 33.1525 10.4066 29.9335 10.4066 29.4157V19.1244C10.4066 17.86 10.8671 17.6298 12.477 17.6298L12.4765 17.6301ZM40.9842 41.0985C39.8029 41.0985 38.8177 41.8111 38.8177 42.9919C38.8177 45.236 41.7745 44.8359 41.7745 46.0851C41.7745 46.5826 41.3937 47.0119 40.623 47.0119C40.1057 47.0119 39.4521 46.7686 38.9052 46.3979L38.4176 47.2568C38.9641 47.6368 39.7054 47.9987 40.6231 47.9987C41.9014 47.9987 42.965 47.1778 42.965 46.0461C42.965 43.7719 40.0083 44.4559 40.0083 42.9428C40.0083 42.4453 40.3402 42.0846 40.9842 42.0846C41.5598 42.0846 42.0084 42.2798 42.5063 42.5332L42.926 41.6938C42.3606 41.3429 41.6865 41.0986 40.9843 41.0986L40.9842 41.0985ZM64.5561 41.0985C62.546 41.0985 61.6486 42.5334 61.6486 44.5435C61.6486 46.4562 62.5363 47.9987 64.5561 47.9987C66.576 47.9987 67.4644 46.4562 67.4644 44.5435C67.4644 42.5334 66.5663 41.0985 64.5561 41.0985ZM80.2261 41.0985C78.2159 41.0985 77.2297 42.543 77.2297 44.5536C77.2297 46.6026 78.1283 47.9987 80.187 47.9987C81.0849 47.9987 81.9242 47.6271 82.607 47.0025L82.0118 46.2419C81.4653 46.7398 80.841 47.0119 80.2455 47.0119C79.006 47.0119 78.4201 46.1247 78.4201 44.5436C78.4201 42.9726 79.0453 42.0846 80.226 42.0846C80.8603 42.0846 81.3288 42.3093 81.8456 42.7383L82.451 41.9575C81.7483 41.3814 81.0555 41.0985 80.2261 41.0985L80.2261 41.0985ZM105.633 41.0985C103.622 41.0985 102.725 42.5334 102.725 44.5435C102.725 46.4562 103.613 47.9987 105.633 47.9987C107.652 47.9987 108.541 46.4562 108.541 44.5435C108.541 42.5334 107.643 41.0985 105.633 41.0985ZM12.2527 41.196L11.1301 41.3138V47.891H12.2916V43.4022H12.3111L15.1313 47.891H16.1658V41.2061H15.0043V45.5982H14.9754L12.2528 41.1961L12.2527 41.196ZM27.1506 41.196V47.891H31.2103L31.2984 46.905H28.3121V45.0123H30.8202V44.0263H28.3121V42.1821H31.1323V41.196H27.1506ZM68.9583 41.196V47.891H70.1193V45.0123H72.579V44.0263H70.1193V42.1821H72.8614V41.196H68.9583ZM86.9112 41.196L85.5554 41.3037L83.2032 47.891H84.2868L84.8423 46.2801H87.5361L88.0923 47.891H89.2836L86.9113 41.196H86.9112ZM98.0726 41.196V47.891H99.2335V45.0123H101.693V44.0263H99.2335V42.1821H101.976V41.196H98.0726ZM116.357 41.196L115.235 41.3138V47.891H116.396V43.4022H116.416L119.235 47.891H120.27V41.2061H119.109V45.5982H119.079L116.357 41.1961V41.196ZM127.548 41.196L126.191 41.3037L123.839 47.891H124.922L125.479 46.2801H128.172L128.728 47.891H129.919L127.548 41.196H127.548ZM4.56985 41.2061V45.5678C4.56985 47.0708 5.39907 47.9986 7.03891 47.9986C8.66814 47.9986 9.49793 47.0711 9.49793 45.5584V41.2061H8.33637V45.6365C8.33637 46.4663 7.98584 47.0118 7.03903 47.0118C6.08248 47.0118 5.73085 46.4659 5.73085 45.6264V41.2061H4.56993H4.56985ZM17.82 41.2061V47.891H18.9809V41.2061H17.82ZM20.1222 41.2061L22.4251 47.891H23.703L26.016 41.2061H24.8739L23.5961 44.9437C23.5961 44.9437 23.4693 45.3238 23.1373 46.4657H23.0788C22.7566 45.3238 22.6302 44.9336 22.6302 44.9336L21.3516 41.2061H20.1221H20.1222ZM32.8351 41.2061V47.891H33.996V45.2167H34.5522C34.972 45.2167 35.216 45.6078 35.4111 46.0077L36.3379 47.891H37.6165L36.3379 45.4804C36.2602 45.3242 36.1428 45.1481 35.9283 45.021V45.0022C36.8063 44.6703 37.1874 43.9874 37.1874 43.1876C37.1874 42.0263 36.4552 41.2061 34.9813 41.2061H32.8351H32.8351ZM44.3479 41.2061V47.891H45.5087V41.2061H44.3479ZM46.8451 41.2061V42.2016H48.612V47.891H49.7729V42.1914H51.4611L51.5493 41.2061H46.8451ZM52.3092 41.2061L54.4171 45.0311V47.891H55.578V45.0311L57.6867 41.2061H56.4073L55.461 43.1096C55.461 43.1096 55.344 43.3529 55.0125 44.0949H54.9836C54.6318 43.3529 54.5047 43.1096 54.5047 43.1096L53.6169 41.2061H52.3093H52.3092ZM90.2243 41.2061V47.891H94.1764L94.2645 46.905H91.3858V41.2061H90.2243ZM95.395 41.2061V47.891H96.5559V41.2061H95.395ZM109.542 41.2061V47.891H110.704V45.2167H111.26C111.679 45.2167 111.924 45.6078 112.119 46.0077L113.046 47.891H114.324L113.046 45.4804C112.968 45.3242 112.851 45.1481 112.636 45.021V45.0022C113.514 44.6703 113.895 43.9874 113.895 43.1876C113.895 42.0263 113.163 41.2061 111.689 41.2061H109.542ZM121.729 41.2061V47.891H122.89V41.2061H121.729ZM64.5545 42.0845C65.7061 42.0845 66.2622 43.0895 66.2622 44.5435C66.2622 45.9975 65.6969 47.0118 64.5545 47.0118C63.4033 47.0118 62.8374 45.997 62.8374 44.5333C62.8374 43.0793 63.4033 42.0845 64.5545 42.0845ZM105.63 42.0845C106.782 42.0845 107.338 43.0895 107.338 44.5435C107.338 45.9975 106.772 47.0118 105.63 47.0118C104.478 47.0118 103.913 45.997 103.913 44.5333C103.913 43.0793 104.478 42.0845 105.63 42.0845ZM33.9959 42.2015H34.9524C35.7429 42.2015 35.9969 42.5724 35.9969 43.197C35.9969 43.8313 35.6746 44.2409 34.9719 44.2409H33.9959V42.2015ZM110.703 42.2015H111.66C112.45 42.2015 112.704 42.5724 112.704 43.197C112.704 43.8313 112.382 44.2409 111.679 44.2409H110.703V42.2015ZM86.1653 42.3771H86.1847C86.6434 43.7627 86.7215 43.9772 86.7215 43.9772L87.2387 45.4509H85.1207L85.6379 43.9772C85.6379 43.9772 85.7163 43.7627 86.1653 42.3771ZM126.802 42.3771H126.821C127.28 43.7627 127.358 43.9772 127.358 43.9772L127.875 45.4509H125.757L126.275 43.9772C126.275 43.9772 126.353 43.7627 126.802 42.3771H126.802Z" fill="#00326F"/>
</svg>
